/* XPM */
static char *_657c85817b6467dcc237243afed3414RdIUMSTyKlJLBIHK[] = {
/* columns rows colors chars-per-pixel */
"40 40 109 2 ",
"   c black",
".  c #48440A",
"X  c #6B670F",
"o  c #706A0D",
"O  c #787324",
"+  c #7F7C3B",
"@  c #4E5043",
"#  c #515244",
"$  c #5A5944",
"%  c #7F7E5D",
"&  c #526B79",
"*  c #5F767A",
"=  c #696A70",
"-  c #656D7E",
";  c #6A767C",
":  c #6B797C",
">  c gray44",
",  c #767B7E",
"<  c #7B7B7F",
"1  c #807A10",
"2  c #8F8914",
"3  c #B8AF17",
"4  c #9B9529",
"5  c #BFB82E",
"6  c #CCC218",
"7  c #E0D51A",
"8  c #D3CB30",
"9  c #F0E52E",
"0  c #BFBB7B",
"q  c #C6C045",
"w  c #EFE648",
"e  c #FFF542",
"r  c #FFF54F",
"t  c #F7EE52",
"y  c #FEF65C",
"u  c #EFE86A",
"i  c #FEF776",
"p  c #FFF871",
"a  c #FFF87E",
"s  c #5ECDE4",
"d  c #62CDE5",
"f  c #6DCFE7",
"g  c #6FCFE8",
"h  c #71CFE8",
"j  c #66D0E5",
"k  c #69D2E6",
"l  c #74D0E9",
"z  c #7BD2EA",
"x  c #808080",
"c  c #BFBD90",
"v  c #98A4BD",
"b  c #C7C48A",
"n  c #DBD78B",
"m  c #F0EA8C",
"M  c #FFFAA0",
"N  c #FFFAAE",
"B  c #FEFBBA",
"V  c #83D2EC",
"C  c #8BD3EE",
"Z  c #8CDBEB",
"A  c #92D4EF",
"S  c #93DCED",
"D  c #99DBEF",
"F  c #97D4F0",
"G  c #9BD5F1",
"H  c #9BD9F0",
"J  c #A5D6F4",
"K  c #ACD7F5",
"L  c #A7DAF3",
"P  c #AED8F5",
"I  c #B1D7F6",
"U  c #B5D8F7",
"Y  c #B7D8F8",
"T  c #BBD9F8",
"R  c #9EE1EF",
"E  c #A3E2EF",
"W  c #A5E2F0",
"Q  c #ACE6F1",
"!  c #B1E6F2",
"~  c #B9E9F3",
"^  c #F7F4C6",
"/  c #FFFDDD",
"(  c #C3DAFA",
")  c #CBDBFC",
"_  c #D0DDFD",
"`  c #C3EEF5",
"'  c #C4E0F9",
"]  c #CAE1FA",
"[  c #CFEAF9",
"{  c #D4E2FD",
"}  c #DBE5FD",
"|  c #D6EEF9",
" . c #DBEBFB",
".. c #CDF0F7",
"X. c #D4F1F8",
"o. c #E0E7FE",
"O. c #E3EBFD",
"+. c #EAEFFE",
"@. c #E4F2FC",
"#. c #EBF4FD",
"$. c #EDFAFC",
"%. c #F2F6FE",
"&. c #F4F7FF",
"*. c #F5FAFE",
"=. c #F7FCFE",
"-. c #F8FAFF",
";. c #FDFBFF",
":. c #FBFDFF",
">. c #FEFEFF",
/* pixels */
") V Z *.} ) ) ) ) ) ) ) C Z =.>.+.) ) ) ) ) ) ) K f K ) ) ) ) ) ) ) ) ) ) ) ) ) ",
") I H W ( ) ) ) ) ) ) ) C k W $.;.o.) ) ) ) ) ) ( G C J ) ) ) ) ) ) ) ) ) ) ) ) ",
") _ U V G T ) ) ) ) ) ) J h d Q $.>. .) ) ) ) ) ) ) A C K ) ) ) ) ) ) ) ) ) ) ) ",
") ) ) ( z F ) ) ) ) ) ) ) K f d W =.:.o.) ) ) ) ) ) ) G z T ) ) ) ) ) ) ) ) ) ) ",
") ) ) ) U T ) ) ) ) ) ) ) ( K g j R =.>.+.) ) ) ) ) ) ( J V K ) ) ) ) ) ) ) ) ) ",
") ) ) ) ) ) ) ) ) ) ) ) ) ) ) J h j Q $.&.) ) ) ) ) ) _ T d z K ) ) ) ) ) ) ) ) ",
") ) ) ) ) ) ) ) ) ) ) ) ) ) ) ) J f d Q @.{ ) ) ) ) ) ) T V d z U ) ) ) ) ) ) ) ",
") ) ) ) ) ) ) ) ) ) ) ) ) ) ) ) ) K f d R #.{ ) ) ) ) ) ) ( V s h U ) ) ) ) ) ) ",
") ) ) ) ) ) ) ) ) ) ) ) ) ) ) ) ) ( K h k R @.o.) ) ) ) ) ) T C s z K ) ) ) ) ) ",
") ) ) ) ) ) ) ) ) ) ) ) ) ) ) ) ) ) ) J h d Q | } ) ) ) ) ) _ T V d z K ) ) ) ) ",
") ) ) ) ) ) ) ) ) ) ) ) ) ) ) ) ) ) ) ) K f d Q @.) ) ) ) ) ) ) ( V s l Y ) ) ) ",
") ) ) ) ) ) ) ) ) ) ) ) ) ) ) ) ) ) ) ) ) I f j C ( ) ) ) ) ) ) ) T C s l I ) ) ",
") ) { +._ ) ) ) O.o.) ) ) ) ) ) ) ) ) ) ) ) J h d C T ) ) ) ) ) ) ) Y C s z K ) ",
") ) ] X. .} { ) [ | } ) ) ) ) ) v - - - - - - & h d K ) ) ) ) ) ) ) ) T V d z K ",
") ) K z X.>.&.{ C R #.{ ) ) ) ) -               K h K ) ) ) ) ) ) ) ) ) ( V d d ",
") ) ( K Z ` >.%.' F S @.o.-     x >.>.>.>.>.>.>.      ) ) ) ) ) ) ) ) ) ) T C s ",
") ) ) ) G D ` >.&.' C Q ; = x + 0 B >.>.>.>./ B + % x - v ) ) ) ) ) ) ) ) _ U A ",
") ) ) ) ) G V X.:.&.] V   x >.i i i >.>.>.>.B i i B >.  - ) ) ) ) ) ) ) ) ) ) ) ",
") ) ) ) ) ) K z ..>.<   >.M e e M >.i B >.i B >.e e e >.x   ) ) ) ) ) ) ) ) ) ) ",
") ) ) ) ) ) ( J S * > x M p e y a M y N >.y a M y r e M c x - v ) ) ) ) ) ) ) ) ",
") ) ) ) ) ) ) ) F   x >.e e e i y e e M >.e e e i y e e M >.  - ) ) ) ) ) ) ) ) ",
") ) ) ) ) ) ) ) )   + i 7 9 e 7 7 7 >.>.>.>.m 7 7 9 e 7 w i   - ) ) ) ) ) ) ) ) ",
") ) ) ) ) ) ) ) )   O w w t y w u m >.>.>.>.^ m w t y w w w   - ) ) ) ) ) ) ) ) ",
") ) ) ) ) ) ) ) )   o 7 i i i i B >.>.>.>.>.>.>.i i i i w 7   - ) ) ) ) ) ) ) ) ",
") ) ) ) ) ) ) ) ) ) -   2 2 2 i w 7 2 b >.2 3 7 i q 2 2 .   ) ) ) ) ) ) ) ) ) ) ",
") ) ) ) ) ) ) ) ) ) v - . X 2 w w w 3 n >.3 8 w w 5 2 . @ - ) ) ) ) ) ) ) ) ) ) ",
") ) ) ) ) ) ) ) ) ) ) )   . 2 7 w i 7 m >.7 w i 7 3 2   - ) ) ) ) ) ) ) ) ) ) ) ",
") ) ) ) ) ) ) ) ) ) ) ) ) -   2 3 7 7 w i 7 7 7 2 .   ) ) ) ) ) ) ) ) ) ) ) ) ) ",
") ) ) ) ) ) ) ) ) ) ) ) ) v - . 1 3 7 w i 7 6 3 . # - ) ) ) ) ) ) ) ) ) ) ) ) ) ",
") ) ) ) ) ) ) ) ) ) ) ) ) ) )   . 2 7 w i 7 3 2   , } ) ) ) ) ) ) ) ) ) ) ) ) ) ",
") ) ) ) ) ) ) ) ) ) ) ) ) ) ) ) -   2 q i 2 .   F R | o.) ) ) ) ) ) ) ) ) ) ) ) ",
") ) ) ) ) ) ) ) ) ) ) ) ) ) ) ) v - . 4 w . $ < ' V ! | } ) ) ) ) ) { } ) ) ) ) ",
") ) ) ) ) ) ) ) ) ) ) ) ) ) ) ) ) )   o 7   : =.#.) V E #.{ ) ) ) ) +.%.{ ) ) ) ",
") ) ) ) ) ) ) ) ) ) ) ) ) ) ) ) ) ) ) -   P Z z R #.] F S @.} ) ) ) _  .%.} ) ) ",
") ) ) ) ) ) ) ) ) ) ) ) ) ) ) ) ) ) ) v - ) G C L o.{ I A Q | o.) ) ) ( ! | } ) ",
") ) ) ) ) ) ) ) ) ) ) ) ) ) ) ) ) ) ) ) ) ) ) ) ) ) ) ) T V ! | ) ) ) U z ~  .} ",
") ) ) ) ) ) ) ) ) ) ) ) ) ) ) ) ) ) ) ) ) ) ) ) ) ) ) ) ) ( C Z ( ) ) ) ( V W *.",
") ) ) ) ) ) ) ) +.O.) ) ) ) ) ) ) ) ) ) ) ) ) ) ) ) ) ) ) ) Y F V T ) ) ) I H Z ",
") ) ) ) ) ) ) ) o.#. .) ) ) ) ) ) ) ) ) ) ) ) ) ) ) ) ) ) ) _ U A T ) ) ) _ I V ",
") ) ) ) ) ) ) ) ) o.-.{ ) ) ) ) ) ) ) ) ) ) ) ) ) ) ) ) ) ) ) ) ) ) ) ) ) ) ) ) "
};
