/* XPM */
static char *result[] = {
/* columns rows colors chars-per-pixel */
"40 40 163 2 ",
"   c #7F3D38",
".  c #252B44",
"X  c #2B2D44",
"o  c #342E43",
"O  c #3B2F41",
"+  c #2D3045",
"@  c #333444",
"#  c #3E3642",
"$  c #333C5E",
"%  c #453E42",
"&  c #553F4F",
"*  c #334164",
"=  c #394366",
"-  c #394568",
";  c #36496D",
":  c #254C75",
">  c #2E4E76",
",  c #2D4E78",
"<  c #324C72",
"1  c #2C517C",
"2  c #554741",
"3  c #544B43",
"4  c #4F4D5F",
"5  c #66464F",
"6  c #685943",
"7  c #7D5940",
"8  c #694652",
"9  c #605A57",
"0  c #635B5B",
"q  c #7F6954",
"w  c #424764",
"e  c #434964",
"r  c #4D4E61",
"t  c #43566E",
"y  c #50506A",
"u  c #62576A",
"i  c #46687D",
"p  c #646160",
"a  c #6C6A63",
"s  c #777665",
"d  c #954135",
"f  c #805C3F",
"g  c #BF4B2F",
"h  c #BE462E",
"j  c #A24333",
"k  c #BF4C30",
"l  c #B04631",
"z  c #A75635",
"x  c #86653D",
"c  c #88663D",
"v  c #966F3C",
"b  c #AA7B3A",
"n  c #C44A2C",
"m  c #C0472E",
"M  c #CC582D",
"N  c #C04D30",
"B  c #C25132",
"V  c #C85D37",
"C  c #C95F39",
"Z  c #C65835",
"A  c #CA6039",
"S  c #C36633",
"D  c #D06230",
"F  c #D66C30",
"G  c #D36D38",
"H  c #CC7238",
"J  c #DD7C37",
"K  c #D67338",
"L  c #93534E",
"P  c #995D4F",
"I  c #825052",
"U  c #9E794B",
"Y  c #8B6F51",
"T  c #A37C4B",
"R  c #B3784D",
"E  c #A76D57",
"W  c #A7755D",
"Q  c #846F6A",
"!  c #DD7641",
"~  c #B4823A",
"^  c #BB8639",
"/  c #C38A39",
"(  c #C98E38",
")  c #DF8037",
"_  c #DF843A",
"`  c #DF893E",
"'  c #D59537",
"]  c #D99837",
"[  c #D4973F",
"{  c #DA9E3D",
"}  c #E28336",
"|  c #EA8F33",
" . c #E88F3B",
".. c #E78B3A",
"X. c #ED9536",
"o. c #EC943B",
"O. c #E39F3B",
"+. c #F39D36",
"@. c #F29B39",
"#. c #E9A236",
"$. c #E9A239",
"%. c #F5A436",
"&. c #FAA534",
"*. c #F5A936",
"=. c #FDAC34",
"-. c #FFB134",
";. c #FFBB3C",
":. c #F5B33E",
">. c #AC824A",
",. c #B68347",
"<. c #BE9752",
"1. c #B4A657",
"2. c #8A8D6B",
"3. c #9D9666",
"4. c #C48144",
"5. c #C88743",
"6. c #C48C43",
"7. c #CC8C42",
"8. c #DF8B40",
"9. c #CB9443",
"0. c #D29440",
"q. c #E09847",
"w. c #C5A051",
"e. c #F4B740",
"r. c #FFBF40",
"t. c #F5BC45",
"y. c #D6C35B",
"u. c #F5C44B",
"i. c #FFCB4A",
"p. c #FAC246",
"a. c #FFE85E",
"s. c #FFEF63",
"d. c #1E5E91",
"f. c #255787",
"g. c #255887",
"h. c #235A8A",
"j. c #295B88",
"k. c #1E6394",
"l. c #17659C",
"z. c #1A689A",
"x. c #1F729D",
"c. c #28648B",
"v. c #216091",
"b. c #0C6EAD",
"n. c #136DA4",
"m. c #116FAA",
"M. c #0A70AF",
"N. c #1372A6",
"B. c #1272A8",
"V. c #1478AA",
"C. c #086FB0",
"Z. c #066EB1",
"A. c #0A73B1",
"S. c #067EBB",
"D. c #0A79B3",
"F. c #467F91",
"G. c #0685BE",
"H. c #0880B9",
"J. c #4F828D",
"K. c #0387C2",
"L. c #028AC5",
"P. c #008EC9",
"I. c None",
/* pixels */
"I.I.I.I.C C C C C C C C C C C C C C C C C C C C C C C C C C C C C C C I.I.I.I.I.",
"I.I.I.G } J ) ) ) } J } } J J } _ 8.8.8.8...J ) ) ) ) ) ) _ 8.8.) ) K I.I.I.I.I.",
"I.A A K =.-.=.-.-.=.=.=.=.-.=.-.;.i.i.i.i.p.-.=.-.=.=.-.=.p.i.i.-.-...A A I.I.I.",
"I.A A K =.=.=.*.*.*.*.*.*.*.*.*.e.u.u.u.u.t.*.*.*.*.*.*.*.e.u.t.-.-.| A A I.I.I.",
"A | +.%.=.-.T 0 0 0 0 0 0 0 0 0 u p p p p 9 3 2 2 2 2 2 2 3 3 6 #.=.=.+.+.G C A ",
"A X.-.=.=.-.Y * = = = = = = * * = = * = = $ . . . . . . . . . # #.-.=.=.=.G C A ",
"A X.-.*.6.6.a f.1 1 , , < < , 1 > 1 1 < ; * . . . . . . . . . @ b ^ ] -.*.G C A ",
"A X.-.[ e = d.b.b.C.C.l.f.f.n.b.M.b.b.d.g.: . . . . . . . . . . X . c =.=.G C A ",
"A X.-.[ = = d.M.M.M.M.z.h.h.b.b.A.b.b.d.h.: . . . . . . . . . . . . f -.*.K C A ",
"A @.-.[ 4 = d.M.M.M.b.l.f.h.n.Z.b.M.b.d.g.: . . . . . . . . . . . . x -.=.G C C ",
"A X.-.[ = = d.M.b.C.b.l.f.h.b.b.b.b.b.d.g.: . . . . . . . . X . . . x -.=.G C A ",
"V X.-.[ 4 = d.M.M.A.D.l.f.h.n.b.b.C.b.k.g.: X . . . . . . . . . . . x *.%.G C C ",
"m X.-.[ e = d.M.A.K.P.N.f.h.m.b.A.b.b.d.g.: . . . . . . . . . . . . 7 o. .A V A ",
"g | -.[ e = d.M.D.K.P.N.f.h.b.b.b.b.C.d.g.: . . . X . . X . . . . . 7 .. .G A A ",
"Z X.-.[ e = s 3.2.c.c.h.g.h.b.b.b.C.m.u I 5 . . . . . . . . . . . . x &.%.G A A ",
"A X.-.[ e = >.-.O.4 = < g.h.n.b.C.b.m.L n d . . . . . . . . X . . . x -.*.K V A ",
"V X.=.0.e = T $.9.t < 1 f.h.b.b.m.A.m.P M z % % O O o . . . . . . . f -.*.G A A ",
"N J @.4.e - e 4 t D.G.n.f.h.n.b.C.b.m.w.&.%.#.#.S l d o . . . . . . x -.=.G V A ",
"k J o.4.w - = = < G.P.B.f.h.n.b.C.b.m.w.=.=.-.-.F h j X . . . . . . x -.*.G A A ",
"g } &.7.w - , g.v.K.K.b.f.h.b.b.b.b.m.s U U U v / q.,.o . . X . . . x -.=.G A A ",
"g | -.[ e = d.A.D.K.P.N.f.h.b.b.b.C.b., = $ . . 1.s.y.@ . . . . . . f -.=.G C A ",
"g | -.[ e = d.M.A.K.P.B.f.h.b.b.C.m.b., - $ . . 1.a.y.@ . . . . . . x -.=.G C A ",
"g | -.[ e = d.C.D.K.P.N.f.h.b.b.C.C.m.d.f.: X X ~ r.{ @ . X . . . . x -.&.G C A ",
"m | -.[ e = d.b.A.K.L.N.f.h.n.C.m.C.b.v.h.: . . ~ -.' o . . . . . . x -.=.G C A ",
"B X.-.[ e = d.M.A.K.P.B.g.g.n.b.C.b.b.d.h.: . X ~ -.' @ . . . . . . x -.*.G C A ",
"A X.-.[ e = d.M.A.K.L.B.g.h.b.b.b.C.b.k.h.: . . ~ -.' @ . . . . . . x -.=.G C A ",
"A X.-.[ e = d.b.A.K.P.B.g.h.b.b.b.A.b.v.j.1 + + ~ -.' @ . . . . . . x -.*.G C A ",
"B } @.5.e = d.M.A.K.P.B.g.h.m.b.b.b.B.Q E R ( ( H D z o . . . X . . f o.X.G C A ",
"g J O.! w = d.C.A.K.P.B.f.h.b.b.C.A.m.W J 8.=.-.F n j X . . . . . . 7 o...G C A ",
"k _ o.6.e * i J.F.V.V.l.f.f.n.b.b.b.m.E G H / / z d   X . . . . . . 7 X.o.G C A ",
"A X.-.[ e = >.-.{ r = , f.h.b.b.C.b.m.L n d X X X X X . . . . . . . c =.*.G C A ",
"A X.-.0.e = >.-.O.r = , f.d.m.b.b.C.m.L n d X . . . . . . . X . . . c -.=.G C A ",
"A X.-.[ e = 9 q a x.N.k.g.h.b.M.M.b.b.y 8 2 . . . . . . . . . . X . Y &.=.G V A ",
"A X.-.[ e = - = < G.P.B.g.h.n.b.b.C.b., = * . . . . . . . . . . . . x =.=.G C A ",
"V X.-.[ e = ; ; 1 H.K.N.f.h.b.b.b.b.b.f.; * . . . . . . . . . . . . x =.%.G C A ",
"g X.-.[ e - d.b.b.M.M.l.f.f.m.b.b.b.b.d.f.: . . . . . X X . . . . . 7 X. .G C A ",
"g X.-.[ 4 * d.M.b.b.b.l.h.h.b.b.b.b.b.d.h.: . . . . . . X . . . . . 7  . .A C A ",
"g | -.[ e * d.M.M.S.S.n.f.h.m.b.C.b.b.d.h.: . . . . . . . . . . . . 7 o. .G A A ",
"g | -.[ e = d.M.D.K.P.B.h.h.n.Z.A.b.b.d.h.: . . . . . . . . . X . . 7 X. .A A A ",
"g | -.[ e - d.M.A.K.K.b.f.h.n.b.b.b.b.k.g.: . . X . . . . . . . . . 7 .. .G A A "
};
