/* XPM */
static char *result[] = {
/* columns rows colors chars-per-pixel */
"40 40 157 2 ",
"   c #393F63",
".  c #374266",
"X  c #384265",
"o  c #354369",
"O  c #394568",
"+  c #354A6E",
"@  c #38486B",
"#  c #2F4E75",
"$  c #2E4F79",
"%  c #314E76",
"&  c #2C527D",
"*  c #305077",
"=  c #3E5A77",
"-  c #33567A",
";  c #54515E",
":  c #5C555E",
">  c #5F585D",
",  c #60555D",
"<  c #645B5B",
"1  c #6F635A",
"2  c #766457",
"3  c #7A6656",
"4  c #7D6855",
"5  c #746558",
"6  c #766C5C",
"7  c #4F4F61",
"8  c #414562",
"9  c #415972",
"0  c #5D5D71",
"q  c #5F6769",
"w  c #4D6A77",
"e  c #66616D",
"r  c #786E6D",
"t  c #757565",
"y  c #797864",
"u  c #6B7B70",
"i  c #637E78",
"p  c #BD492F",
"a  c #BF4C30",
"s  c #C74729",
"d  c #C44A2C",
"f  c #C8502E",
"g  c #C14F31",
"h  c #C35333",
"j  c #C75B37",
"k  c #C85C37",
"l  c #C95F39",
"z  c #CA6139",
"x  c #D26B34",
"c  c #D26D38",
"v  c #D67235",
"b  c #DB7732",
"n  c #DD7C35",
"m  c #D4723B",
"M  c #D9763A",
"N  c #DB7939",
"B  c #E0773F",
"V  c #98574E",
"C  c #96594F",
"Z  c #865555",
"A  c #8C5855",
"S  c #895555",
"D  c #945951",
"F  c #995E52",
"G  c #98774E",
"H  c #9D7A4D",
"J  c #987A51",
"K  c #A8664D",
"L  c #A4654E",
"P  c #A7785E",
"I  c #AB7B5E",
"U  c #847264",
"Y  c #DF8037",
"T  c #DF8D3E",
"R  c #DA9A3D",
"E  c #F1902F",
"W  c #E18337",
"Q  c #E68A36",
"!  c #E28F3D",
"~  c #E5943C",
"^  c #EB933B",
"/  c #EC9B39",
"(  c #F29C35",
")  c #F19B39",
"_  c #DFA13F",
"`  c #EFA538",
"'  c #F3A437",
"]  c #F9A735",
"[  c #F3A937",
"{  c #FDAD34",
"}  c #FAAC38",
"|  c #FFB034",
" . c #FAB03B",
".. c #FFB93B",
"X. c #988357",
"o. c #988559",
"O. c #AD854B",
"+. c #B48647",
"@. c #B28548",
"#. c #B38849",
"$. c #BB8A45",
"%. c #AA8453",
"&. c #B88E52",
"*. c #A99359",
"=. c #BB9A52",
"-. c #C28D43",
";. c #D5A349",
":. c #CBA953",
">. c #FABF47",
",. c #FBC347",
"<. c #FAC249",
"1. c #FFCC49",
"2. c #F2E063",
"3. c #FDE661",
"4. c #1E5F91",
"5. c #255786",
"6. c #295682",
"7. c #275C86",
"8. c #285A84",
"9. c #235A89",
"0. c #1C6596",
"q. c #17669C",
"w. c #1A6699",
"e. c #196A9D",
"r. c #216491",
"t. c #2F7191",
"y. c #26799F",
"u. c #2D759E",
"i. c #3E7796",
"p. c #0B6FAE",
"a. c #136BA3",
"s. c #186FA0",
"d. c #106DA8",
"f. c #0B70AF",
"g. c #0F78AE",
"h. c #1A72A2",
"j. c #1175A9",
"k. c #1178AC",
"l. c #076EB0",
"z. c #0A74B1",
"x. c #077AB7",
"c. c #0B7CB4",
"v. c #077DBA",
"b. c #087BB8",
"n. c #2F7BA1",
"m. c #5E7581",
"M. c #0D81B7",
"N. c #0582BD",
"B. c #0A81B8",
"V. c #0B8ABE",
"C. c #4E838A",
"Z. c #538389",
"A. c #0385C1",
"S. c #028BC5",
"D. c #0889C0",
"F. c #008EC9",
"G. c None",
/* pixels */
"G.G.G.G.G.l l l z l l z z l z l z k z l z l l l l l z z l l l l l z l l G.G.G.G.",
"G.G.G.G.G.c c c x v x c c c c c c c c m c m m c c c c c c c c m m c c c G.G.G.G.",
"G.G.G.z z ( ] ] ] ] ] ] [ ] ] ] ] [ <.<.,.,.>.} [ ] ] ] ] ]  .,.<. .] ( z z G.G.",
"G.G.G.l z ' | | | | | { | | | | | ..1.1.1.1.1...| | | | | { ..1.1...| ( z z G.G.",
"z l N Q Q ] | R G G G G G G G G G G o.o.o.o.X.G G G G G G G J o.X.` } ' Q Q M l ",
"l z W | | | | $.. . . . X . . . X X X X X o . X . . . . X X X . X -.| | { | Y l ",
"z l W | { ` ` O.+ + + + + + + + + + + + % + + @ @ + + + + + + + + #.` [ { | Y l ",
"z l W | [ 2 ; = a.a.c.B.c.a.a.g.B.B.B.B.B.B.c.9.& w.B.B.B.B.c.a.a.9 ; 2 [ | n l ",
"z l W | [ : . & l.f.N.F.N.z.l.N.F.S.S.F.A.F.V.4.5.s.S.S.F.S.N.f.p.& . < [ { Y l ",
"l l W { [ > X 8.x.x.N.F.N.f.f.N.S.S.S.S.F.F.A.e.0.f.S.S.S.S.N.f.p.& . < ] { Y l ",
"z z W | [ > X 7.S.S.F.S.N.l.p.N.S.S.S.S.S.S.S.f.p.x.A.F.S.S.N.f.p.& X < [ | Y l ",
"l l W { [ > X 7.S.S.S.S.N.p.p.N.S.S.S.S.S.S.S.f.p.x.F.S.S.S.N.f.p.* X < [ | n z ",
"g a n { [ > . & z.z.N.F.N.f.p.N.S.S.S.S.S.S.S.f.p.x.S.S.S.A.N.f.p.& X , ~ / M l ",
"p p b | [ > . & l.l.N.F.A.f.p.B.S.S.S.S.S.S.S.f.p.x.S.F.F.F.N.f.p.& X , ! ^ M l ",
"h g n | [ > . 9 Z.Z.y.j.k.f.p.N.S.S.S.S.S.S.A.z.f.v.A.S.n.i.u.f.p.& X < ^ ) N l ",
"l l W { [ : . 4 { } 1 . * f.p.N.S.S.S.S.S.S.F.N.v.N.F.V.D d Z f.p.& X < [ { n l ",
"l l W { [ > . 4 } { 1 X $ p.p.v.S.S.S.S.S.S.S.N.x.N.F.V.C d A f.p.& X < [ { W l ",
"h g v ) ~ : X 7 5 5 t.k.j.p.p.N.S.S.S.S.S.S.S.N.N.N.S.V.&.E O.e.e.# X < [ | n l ",
"p p x ^ T : X X X X g.F.N.l.p.N.S.S.S.S.S.S.A.N.x.N.S.V.:.| =.0.0.% o < [ { W l ",
"p p c / ~ : . + - & g.F.N.f.p.N.S.S.S.S.S.S.S.N.N.N.S.V.*.R *.C.C.= . < [ | W l ",
"p p b { [ > . 8.N.V.S.S.N.z.p.N.F.S.S.S.S.S.V.N.N.N.F.V.- 8 y 2.2.t . < [ | Y l ",
"p p b | [ > . 7.F.S.S.S.N.f.p.N.S.S.S.S.S.S.S.N.v.N.S.V.- X y 3.3.t   < [ { Y l ",
"p p b | [ > X 7.S.S.S.F.N.0.w.c.S.S.S.S.S.S.S.N.v.N.S.S.0.& u ,.,.6 . < [ | Y l ",
"p p b | [ > X 7.S.S.S.S.x.9.5.g.F.S.S.S.S.S.S.B.N.N.S.V.s.w.i { { 2 o < [ { Y l ",
"d a n { [ > X 7.S.S.S.S.B.5.5.g.S.S.S.S.S.S.S.N.v.N.S.S.s.w.i | { 2 o < [ { Y l ",
"k l W { [ > X 7.S.S.S.F.B.9.9.g.F.S.S.S.S.S.S.v.N.N.S.S.s.0.i { { 2 o < [ { n l ",
"z z Y | [ > X 8.S.S.F.A.c.9.9.g.S.S.S.S.S.S.S.v.v.N.F.S.s.w.i | { 2 o < ] | W l ",
"h h N ' / > X 8.v.N.N.F.c.9.5.g.F.S.S.S.S.S.S.N.v.N.A.D.m.r U H H : o , / ' N z ",
"a a c ^ T : . & f.f.N.F.v.9.9.k.S.S.S.S.S.S.S.v.b.A.S.D.I B L X O X O , ! ~ M z ",
"a d x ^ T : X & h.h.M.V.c.9.9.g.S.S.S.S.S.S.S.v.v.N.S.V.P M L @ O O   , ! ^ M l ",
"j j n { ` : . 1 ;.;.e % 6.d.d.v.F.S.S.S.S.S.S.N.v.A.S.V.F f A a.a.$ X < ` { Y l ",
"l l W | [ > . 4 | { 2   % p.p.N.S.S.S.S.S.S.S.v.b.A.S.V.V s S p.p.& X < [ { n l ",
"z l Y | [ > o < #.@.w 9.r.p.f.N.S.S.S.S.S.S.F.x.x.N.A.D.e Z 0 f.p.& X < [ { Y l ",
"z l W { [ > X X X o j.F.A.f.p.N.S.S.S.S.S.S.A.g.p.x.F.S.h.0.e.f.p.& X < } | Y l ",
"l l W | [ > X X @ O k.F.N.p.p.v.S.S.S.S.S.S.S.z.p.x.A.S.s.0.q.p.f.& X < } { n l ",
"h a n | [ > X & q.q.B.F.B.4.4.c.F.S.S.S.S.S.N.z.p.c.S.S.c.z.z.p.f.*   , ~ ) M l ",
"p p b | [ > X & f.f.N.S.c.9.9.g.S.S.S.S.S.S.A.z.p.x.S.S.v.v.x.p.f.$   > ! ^ v l ",
"p p b | [ > . 6.f.f.N.F.c.9.9.g.F.S.S.S.S.F.A.d.a.z.S.S.v.v.x.p.f.& X , ! ^ M l ",
"p p b | [ > . & f.f.N.F.M.9.9.k.S.S.S.S.S.S.V.4.5.a.F.S.N.v.x.p.f.& . > ! ^ v l ",
"p p b { [ : . & f.f.N.F.c.9.9.f.F.S.S.S.S.S.N.4.5.s.S.S.N.v.x.p.p.$ . > ! ^ v l "
};
