/* XPM */
static char *c14b2a3d7d43481fefa472065763668cjrF33ZR0t1UXBMGy[] = {
/* columns rows colors chars-per-pixel */
"40 40 122 2 ",
"   c #5ECDE4",
".  c #62CDE5",
"X  c #6DCFE7",
"o  c #6FCFE8",
"O  c #71CFE8",
"+  c #66D0E5",
"@  c #69D2E6",
"#  c #74D0E9",
"$  c #7BD2EA",
"%  c #83D2EC",
"&  c #8BD3EE",
"*  c #8CDAEC",
"=  c #92D4EF",
"-  c #94DCED",
";  c #98DBEF",
":  c #96D4F0",
">  c #9BD4F1",
",  c #9BD9F0",
"<  c #A5D6F4",
"1  c #ACD7F5",
"2  c #A7DAF3",
"3  c #AED8F5",
"4  c #B1D7F6",
"5  c #B5D8F7",
"6  c #B7D8F8",
"7  c #BBD9F8",
"8  c #9DE0EF",
"9  c #A3E2EF",
"0  c #A5E3F0",
"q  c #ADE5F1",
"w  c #B1E6F2",
"e  c #BDEBF4",
"r  c #C4DAFA",
"t  c #CBDBFC",
"y  c #D0DDFD",
"u  c #C3EEF5",
"i  c #CBEFF6",
"p  c #C3E0F9",
"a  c #CAE1FA",
"s  c #CFEAF9",
"d  c #D5E2FD",
"f  c #D2E0FC",
"g  c #D8E4FD",
"h  c #D9E4FD",
"j  c #D9E5FD",
"k  c #DAE5FD",
"l  c #DCE5FD",
"z  c #DCE6FD",
"x  c #DDE6FE",
"c  c #DEE6FE",
"v  c #DEE7FE",
"b  c #DBE4FE",
"n  c #D4EDF9",
"m  c #D6EDF9",
"M  c #D7EFF9",
"N  c #D7EEFA",
"B  c #D5EDF9",
"V  c #D9EDFA",
"C  c #DAEFFA",
"Z  c #DAE9FC",
"A  c #DFE8FD",
"S  c #DFE9FD",
"D  c #DBECFB",
"F  c #CDF0F7",
"G  c #D2F0F8",
"H  c #D3F0F8",
"J  c #D3F1F8",
"K  c #D7F2F8",
"L  c #D8F3F8",
"P  c #DBF0FA",
"I  c #E0E7FE",
"U  c #E0E9FD",
"Y  c #E3EBFD",
"T  c #E0E8FE",
"R  c #E1E8FE",
"E  c #E1E9FE",
"W  c #E3E9FE",
"Q  c #E4EBFE",
"!  c #E4ECFD",
"~  c #E4EDFD",
"^  c #E7EEFE",
"/  c #E2EBFD",
"(  c #EAEFFE",
")  c #E1F0FB",
"_  c #E1F2FB",
"`  c #E3F3FB",
"'  c #E3F1FC",
"]  c #E6F2FC",
"[  c #E7F4FC",
"{  c #E8F3FD",
"}  c #E9F5FC",
"|  c #EBF5FD",
" . c #ECF5FD",
".. c #EDF6FD",
"X. c #EFF6FD",
"o. c #E9F0FE",
"O. c #EDFAFC",
"+. c #EEFAFC",
"@. c #F0F5FE",
"#. c #F2F6FE",
"$. c #F3F7FE",
"%. c #F3F6FF",
"&. c #F4F5FF",
"*. c #F5F5FF",
"=. c #F6F5FF",
"-. c #F4F6FF",
";. c #F4F7FF",
":. c #F8F5FF",
">. c #F5FAFE",
",. c #F5FCFD",
"<. c #F7FCFE",
"1. c #F5FAFE",
"2. c #FDFBFF",
"3. c #FBFDFF",
"4. c #FAFEFE",
"5. c #FBFEFE",
"6. c #FDFCFF",
"7. c #FDFFFE",
"8. c #FEFEFF",
"9. c #FEFFFF",
"0. c white",
"q. c #F8FAFF",
/* pixels */
"t % * >.h t t t t t t t & * <.8.^ t t t t t t t 1 X 1 t t t t t t t t t t t t t ",
"t 4 , 0 r t t t t t t t & @ 0 +.2.E t t t t t t r > & < t t t t t t t t t t t t ",
"t y 5 % > 7 t t t t t t < O . q +.8.S t t t t t t t = & 1 t t t t t t t t t t t ",
"t t t r $ : t t t t t t t 1 X . 0 <.3.E t t t t t t t > $ 7 t t t t t t t t t t ",
"t t t t 5 7 t t t t t t t r 1 o + 8 <.8.^ t t t t t t r < % 1 t t t t t t t t t ",
"t t t t t t t t t t t t t t t < O + q +.;.t t t t t t y 7 . $ 1 t t t t t t t t ",
"t t t t t t t t t t t t t t t t < X . q ` d t t t t t t 7 % . $ 5 t t t t t t t ",
"t t t t t t t t t t t t t t t t t 1 X . 8 ..d t t t t t t r %   O 5 t t t t t t ",
"t t t t t t t t t t t t t t t t t r 1 O @ 8 ' I t t t t t t 7 &   $ 1 t t t t t ",
"t t t t t t t t t t t t t t t t t t t < O . q V l t t t t t y 7 % . $ 1 t t t t ",
"t t t t t t t t t t t t t t t t t t t t 1 X . q ] t t t t t t t r %   # 6 t t t ",
"t t t t t t t t t t t t t t t t t t t t t 4 X + * r t t t t t t t 7 &   # 5 t t ",
"t t d ( y t t t Q E t t t t t t t t t t t t < O . & 7 t t t t t t t 6 &   $ 1 t ",
"t t a H Z l d t s M h t t t t t t t t t t t t < O . 1 t t t t t t t t 7 % . $ 1 ",
"t t 1 $ H 8.;.f & 8 ..d t t t t t t t t t t t t 1 O 1 t t t t t t t t t r % . . ",
"t t r 1 * u 8.#.p : - ` E t t t t t t t t t t t r 5 r t t t t t t t t t t 7 &   ",
"t t t t > ; u 8.;.p * q M E t t t t t t t t t t t t t t t t t t t t t t t y 5 = ",
"t t t t t > % K 3.;.a % q ` d t t t t t t t t t t t t t t t t t t t t t t t t t ",
"t t t t t t 1 $ F 8.#.t & - ..h t t t t t t t t t t t t t t t t t t t t t t t t ",
"t t t t t t r < - e 8.;.p : 8 P E t t t t t t t t t t t t t t t t t t t t t t t ",
"t t t t t t t t : - i 3.;.p & w M l t t t t t t t t t t t t t t t t t t t t t t ",
"t t t t t t t t t < $ P 8.#.t % 0 } d t t t t t t t t t t t t t t t t t t t t t ",
"t t t t t t t t t r 3 % u 8.#.p : - } l t t t t t t t t t t t t t t t t t t t t ",
"t t t t t t t t t t r > ; u 8.;.p : 0 M E t t t t t t t t t t t t t t t t t t t ",
"t t t t t t t t t t t t > * H 3.;.p % w P h t t t t t t t t t t t t t t t t t t ",
"t t t t t t t t t t t t t 1 $ H 8.#.t & 8 ..d t t t t t t t t t t t t t t t t t ",
"t t t t t t t t t t t t t r 1 * u 8.#.p : - ` E t t t t t t t t t t t t t t t t ",
"t t t t t t t t t t t t t t t > ; u 8.;.p & q M E t t t t t t t t t t t t t t t ",
"t t t t t t t t t t t t t t t t > % P 3.;.t % q ` d t t t t t t t t t t t t t t ",
"t t t t t t t t t t t t t t t t r 3 $ i 8.#.a * - ..h t t t t t t t t t t t t t ",
"t t t t t t t t t t t t t t t t t r < - e 8.;.p : 8 V E t t t t t t t t t t t t ",
"t t t t t t t t t t t t t t t t t t t : - F 3.:.p % w M l t t t t t d h t t t t ",
"t t t t t t t t t t t t t t t t t t t t < $ K <.o.t % 9 } d t t t t ^ #.f t t t ",
"t t t t t t t t t t t t t t t t t t t t r 3 * $ 8 ..a : - [ l t t t y S #.h t t ",
"t t t t t t t t t t t t t t t t t t t t t t > & 2 E g 4 = q M E t t t r w V l t ",
"t t t t t t t t t t t t t t t t t t t t t t t t t t t t 7 % w V t t t 5 $ e C h ",
"t t t t t t t t t t t t t t t t t t t t t t t t t t t t t r * * r t t t r % 0 >.",
"t t t t t t t t ^ Y t t t t t t t t t t t t t t t t t t t t 6 : % 7 t t t 4 , * ",
"t t t t t t t t E o.S t t t t t t t t t t t t t t t t t t t y 5 = 7 t t t y 4 % ",
"t t t t t t t t t E q.d t t t t t t t t t t t t t t t t t t t t t t t t t t t t "
};
