/* XPM */
static char *_8f18aed17054597fac165bf0ed765e7ohEgRHSnuBjCKlBu[] = {
/* columns rows colors chars-per-pixel */
"40 40 230 2 ",
"   c None",
".  c #030302",
"X  c #191516",
"o  c #110C10",
"O  c #231D19",
"+  c #2A231C",
"@  c #3C1D32",
"#  c #2D1626",
"$  c #0B2734",
"%  c #382633",
"&  c #343635",
"*  c #2D2B2F",
"=  c #462839",
"-  c #5C3439",
";  c #4C3827",
":  c #683C3C",
">  c #5B483D",
",  c #684A38",
"<  c #775635",
"1  c #754B36",
"2  c #3E2A45",
"3  c #3A324C",
"4  c #393A57",
"5  c #2D3658",
"6  c #492D43",
"7  c #453149",
"8  c #563B47",
"9  c #4E374B",
"0  c #603740",
"q  c #2A415C",
"w  c #1B537A",
"e  c #1A4B77",
"r  c #264468",
"t  c #364266",
"y  c #384265",
"u  c #354269",
"i  c #35496D",
"p  c #3A4669",
"a  c #284E77",
"s  c #2B527D",
"d  c #23517C",
"f  c #365679",
"g  c #314F75",
"h  c #5C555E",
"j  c #5F585D",
"k  c #54515E",
"l  c #554254",
"z  c #665643",
"x  c #634C5E",
"c  c #60555D",
"v  c #645B5B",
"b  c #6B5E50",
"n  c #6E6258",
"m  c #766457",
"M  c #796757",
"N  c #4A556D",
"B  c #415874",
"V  c #4F5167",
"C  c #695262",
"Z  c #6F5764",
"A  c #536775",
"S  c #646468",
"D  c #7A6B69",
"F  c #777765",
"G  c #64797B",
"H  c #7A797C",
"J  c #6D6B75",
"K  c #8C533A",
"L  c #835335",
"P  c #BD492F",
"I  c #BF4C30",
"U  c #C14F31",
"Y  c #C95F39",
"T  c #C45634",
"R  c #C64B2C",
"E  c #CA6139",
"W  c #D26D38",
"Q  c #D26B34",
"!  c #DB7732",
"~  c #DD7C35",
"^  c #D4723B",
"/  c #D9763A",
"(  c #D97737",
")  c #885655",
"_  c #965A51",
"`  c #97574E",
"'  c #976F45",
"]  c #98764D",
"[  c #9C7649",
"{  c #8C6D53",
"}  c #A87B59",
"|  c #A6664E",
" . c #947864",
".. c #E07740",
"X. c #758071",
"o. c #DF8037",
"O. c #DF8D3E",
"+. c #DA993D",
"@. c #E18337",
"#. c #E28F3D",
"$. c #E68A36",
"%. c #EB933B",
"&. c #E8963B",
"*. c #F19B37",
"=. c #F1902F",
"-. c #DFA13F",
";. c #EFA538",
":. c #F3A437",
">. c #F3A937",
",. c #FDAD34",
"<. c #F9A938",
"1. c #FFB034",
"2. c #FDB43B",
"3. c #998558",
"4. c #B5874A",
"5. c #AF8E53",
"6. c #8F867D",
"7. c #B79576",
"8. c #AC8678",
"9. c #D1A54C",
"0. c #FBBA49",
"q. c #D29D66",
"w. c #DAA46B",
"e. c #D2A679",
"r. c #C0A169",
"t. c #E8AE74",
"y. c #F0B97B",
"u. c #C28D43",
"i. c #FCC54A",
"p. c #F9C250",
"a. c #F6CE71",
"s. c #F9E462",
"d. c #0A5A88",
"f. c #155B84",
"g. c #135D89",
"h. c #1A5684",
"j. c #1E5E90",
"k. c #2A5B84",
"l. c #255986",
"z. c #305A80",
"x. c #0D6693",
"c. c #0B6B9A",
"v. c #0B6997",
"b. c #1C6595",
"n. c #196B9D",
"m. c #15679A",
"M. c #0E628E",
"N. c #2A759C",
"B. c #2C6C91",
"V. c #0B6FAD",
"C. c #0A6EAA",
"Z. c #136AA2",
"A. c #0B73AC",
"S. c #0975A8",
"D. c #1979A9",
"F. c #067CB3",
"G. c #097BB5",
"H. c #067DB9",
"J. c #0B75B1",
"K. c #0F77B0",
"L. c #2A7AA3",
"P. c #477A94",
"I. c #567588",
"U. c #687B87",
"Y. c #737B82",
"T. c #3B819F",
"R. c #0582BE",
"E. c #0D89BE",
"W. c #0B83B9",
"Q. c #1585B5",
"!. c #1F80AC",
"~. c #2885AC",
"^. c #3885A6",
"/. c #538389",
"(. c #47819B",
"). c #548495",
"_. c #64899B",
"`. c #72828A",
"'. c #4989A3",
"]. c #028BC5",
"[. c #0488C2",
"{. c #89878B",
"}. c #96938C",
"|. c #868F91",
" X c #8B9194",
".X c #96979A",
"XX c #908A83",
"oX c #A5998D",
"OX c #A69C92",
"+X c #B9A793",
"@X c #9A9DA4",
"#X c #8EA4B3",
"$X c #A6A5A7",
"%X c #AAAAB6",
"&X c #B8B7B8",
"*X c #B7B6B5",
"=X c #A39DA1",
"-X c #CAAD95",
";X c #DAB694",
":X c #CBA788",
">X c #ECBD8D",
",X c #C1BBBE",
"<X c #E7C19D",
"1X c #F6C899",
"2X c #F6C880",
"3X c #E6C5A5",
"4X c #F9DAB8",
"5X c #F2D0AF",
"6X c #D5CABF",
"7X c #BABBC4",
"8X c #C8C6C9",
"9X c #C8C7D4",
"0X c #D7D4D9",
"qX c #D1CED1",
"wX c #F5DCC3",
"eX c #F3E7DB",
"rX c #D3D2E4",
"tX c #DCDBEA",
"yX c #D9D8E7",
"uX c #D0CFE3",
"iX c #E0DFEC",
"pX c #E3E2EC",
"aX c #EDEEEE",
"sX c #E5E5F2",
"dX c #EBEBF4",
"fX c #F3F3F4",
"gX c #F5F5F9",
"hX c #FDFDFD",
"jX c #FBF7F2",
"kX c #F3EFEB",
/* pixels */
"          Y Y Y Y Y Y Y Y Y Y Y Y Y Y Y Y Y Y Y Y Y Y Y Y Y Y Y Y Y Y Y         ",
"          W W W W W W W W W W W W W ^ ^ ^ ^ ^ W W W W W W W W ^ ^ W W W         ",
"      E E *.<.<.<.<.<.<.<.<.<.<.<.2.p.p.p.p.0.,.<.<.<.<.<.<.2.i.i.2.<.*.E E     ",
"      Y E *.,.,.1.1.,.1.1.1.1.1.0.y.2Xa.a.a.i.1.,.1.1.1.,.,.2.i.i.2.,.*.E Y     ",
"E Y ( $.$.<.,.+.] ] ] ] ' ' [ 4.w.1X1X1X1X>Xr.} ' ' [ ] ] ] ] 3.3.-.,.<.$.$.( Y ",
"E Y @.1.,.,.1.4.y t t 4 2 2 8 } w.t.t.t.1X3X-XD 2 2 4 t t t t t y u.1.,.,.1.o.Y ",
"E Y @.,.,.;.;.4.i p 4 7 6 6 8 < < < 4.t.>Xe.{ ; # = 7 4 p i i i i 4.;.;.,.,.o.Y ",
"E Y @.1.>.m k f Z.j.4 = = = % O o O ' q.w.{ O o X % = 7 l.W.G.Z.Z.B k M >.,.o.Y ",
"E Y @.,.>.j t s V.b.4 @ o o % H .X Xn ; ; b  X@XH * # 6 j.].R.A.V.s t c >.,.o.Y ",
"E Y @.,.>.j y k.H.m.4 = + . & qXhXaXS . . S aXhXqX& o 5 n.].R.A.V.s y v >.,.o.Y ",
"E Y @.,.>.j y l.].S.4 ) 7.; * 8XhXaXS . . S aXhXqX& $ c.E.].R.A.V.s y v >.,.o.Y ",
"Y Y @.,.>.j y l.].F.h.J 8.> * H .X XD z z D  X@XY.q d.[.].].R.V.V.s y v >.,.~ Y ",
"U I ~ 1.>.j y k.J.J.H.b.9 6 % X o O { ;X;X{ O o $ M.[.].].].R.V.V.s y c &.*.( Y ",
"P P ! 1.>.j y s V.V.[.R.g.5 = , < < , > > , < L z D.].].].].[.V.V.s y c #.%./ Y ",
"U U ~ 1.>.j t B /./.N.D.L.B D :Xy.q.< O O < w.>X+X'.E.[.L.N.N.V.V.s y c &.*.( Y ",
"E Y @.,.>.j t M ,.,.n N Y.@X9XeX4Xw.q.7.7.e.>X5X8X XT.Q._ R ) V.V.s y v >.,.o.Y ",
"E Y @.,.:.j u M ,.>.n N {.$X9XsXeX3X;X-X-X3XwX8X#X_.~.E._ R ) A.V.s y v >.,.o.Y ",
"U U ^ *.&.j t V m m B.P.{. X.X9XdXkX&X{.{.,XfX8X`.~.[.E.5.=.5.n.n.g y v >.,.o.Y ",
"P P Q %.O.h y y t p P.#X8XqX8X9XsXhX0X%X%X0XhXaX&X_.D.E.9.1.5.b.b.g y v >.,.o.Y ",
"P P Q *.#.j y i s f U.&XgXhXfXtXpXfXpXuXrXiXgXhXaX*X_.~.5.+.5././.B t v >.,.o.Y ",
"P P ! ,.:.j y k.[.Q.U.&XgXdXpXfXdXyXrXrXrXrXyXfXhXfX7X_.N V F s.s.F t v >.,.o.Y ",
"P P ! 1.>.j y k.Q.'.}.6XgXsXtXgXgXpXpXtXrXrXiXdXgXhXeX+XH N F s.s.F t v >.,.o.Y ",
"P P ! 1.>.j y k.(.}.;XwXjXtXrXgXhXhXhXfXyXpXgXpXyXfXeX<XoXU.X.i.i.M t v >.,.o.Y ",
"P P ! 1.>.j y z.).OX<X4XwX*X*XaXhXhXhXgXyXsXgX8X$X5X4X1X+XU.X.,.,.m u v >.,.o.Y ",
"U I ! 1.>.j y k.^.|.-X<X;X6. X0XgXgXhXgXyXsXfX%X6.:X>X;X}.I.X.,.,.m u v >.,.o.Y ",
"Y Y @.,.>.j y k.E.^.|.oX}.6. X9XtXtXfXgXyXsXfX*XH XXoX}.I.B.G ,.,.m u v >.,.o.Y ",
"E Y @.1.>.j y l.].E.^.(.P.G .XqXsXpXgXgXyXsXfX*XY.P.(.(.N.m.G ,.,.m u v >.,.o.Y ",
"T T ( :.&.j y k.H.H.E.[.D.A .XpXhXhXhXgXyXdXgX&XU.!.[.E.U.D  .[ [ h t c *.:.( Y ",
"P P Q %.O.h y s V.V.R.].W.I.$XkXhXhXhXgXsXdXhX,X`.Q.].E.} ..| y t y y c #.%./ Y ",
"I I W %.#.h y s D.D.W.R.K.A {.8X0X0X0XqX7X8XqX=XI.D.].E.} / | i p p y c #.%.( Y ",
"Y Y ~ ,.;.j t n 9.9.S g s i l x C C C C x x C l y D.].E._ R ) Z.Z.s y v :.,.~ Y ",
"E Y @.1.>.j u M 1.,.m 4 4 l : : = @ @ @ @ = - : 8 s A.E.` R ) V.V.s y v >.,.o.Y ",
"E Y @.,.>.j t v 4.4.A r 6 , K K , = % 2 = - L K 1 8 a W.S ) S V.V.s y v >.,.o.Y ",
"E Y @.,.>.j y p p t m.d 6 0 : : - 6 5 r 2 - : , : 6 t C.m.b.n.V.V.s y v >.,.o.Y ",
"Y Y @.,.>.j y p p t g.w 3 3 3 3 3 4 w g.q 3 3 3 3 3 r M.b.b.n.V.V.s y v >.,.~ Y ",
"U U ~ 1.>.j y s m.b.x.g.w r r w f.f.x.x.g.f.f.e e w f.x.C.J.J.V.V.s t c &.*.( Y ",
"P P ! 1.>.j y s A.C.S.S.c.a r g.v.v.v.x.v.v.v.g.g.c.S.S.J.H.G.V.V.s y c #.%./ Y ",
"P P ! 1.>.j y s V.V.R.].G.d r g.v.v.v.v.v.v.x.h.h.A.[.[.H.H.G.V.V.s y c #.%./ Y ",
"P P ! 1.>.j y s V.A.R.].G.l.d c.F.F.F.F.F.F.J.h.d Z.].].R.H.G.V.V.s y c #.%./ Y ",
"P P ! 1.>.j y s V.A.R.].G.l.l.A.].].].].].].R.j.l.Z.].].R.H.G.V.V.s y c #.%./ Y "
};
