/* XPM */
static char *fb1c69edba1541caaee26a75d8b80615yyv3FqVqj4t03XWl[] = {
/* columns rows colors chars-per-pixel */
"40 40 212 2 ",
"   c #1B1615",
".  c #22141E",
"X  c #2F1C2A",
"o  c #2E252D",
"O  c #35292B",
"+  c #3C322E",
"@  c #3B2434",
"#  c #3E2934",
"$  c #3C3437",
"%  c #462A3E",
"&  c #4A2C3E",
"*  c #493939",
"=  c #59353D",
"-  c #643C3D",
";  c #5D462F",
":  c #4C4136",
">  c #504132",
",  c #6B473D",
"<  c #79483B",
"1  c #6F533E",
"2  c #70573E",
"3  c #7A5B3A",
"4  c #482D42",
"5  c #4C3449",
"6  c #513545",
"7  c #583B47",
"8  c #523C51",
"9  c #673F41",
"0  c #464445",
"q  c #584140",
"w  c #58465A",
"e  c #5D495D",
"r  c #4C5358",
"t  c #6B4545",
"y  c #695645",
"u  c #6F5255",
"i  c #716456",
"p  c #5F4F67",
"a  c #665566",
"s  c #64536B",
"d  c #6C596D",
"f  c #705966",
"g  c #725C6C",
"h  c #6A5B72",
"j  c #6C6B6A",
"k  c #78666A",
"l  c #7A6979",
"z  c #6E7274",
"x  c #747274",
"c  c #88643E",
"v  c #866748",
"b  c #836B57",
"n  c #8C7070",
"m  c #B98A5A",
"M  c #AB8C6F",
"N  c #B29376",
"B  c #C1976E",
"V  c #DCA56E",
"C  c #C3A17B",
"Z  c #D5A676",
"A  c #E3B07D",
"S  c #796D86",
"D  c #7A738C",
"F  c #797B92",
"G  c #7D7E98",
"H  c #907A83",
"J  c #7B8386",
"K  c #7B889D",
"L  c #6F99A8",
"P  c #7BB3BD",
"I  c #6CCFE7",
"U  c #70CFE8",
"Y  c #7BCFE8",
"T  c #7DD2E3",
"R  c #7CD2EA",
"E  c #8D8A88",
"W  c #958787",
"Q  c #9B928A",
"!  c #878398",
"~  c #8E9196",
"^  c #889199",
"/  c #909293",
"(  c #999899",
")  c #A1978E",
"_  c #AA9B8D",
"`  c #A49A97",
"'  c #ACA59D",
"]  c #BEA993",
"[  c #8888A3",
"{  c #928DA9",
"}  c #8992AB",
"|  c #9898AA",
" . c #8C94B0",
".. c #919BB7",
"X. c #939CB8",
"o. c #A19EAB",
"O. c #9CA2A9",
"+. c #9DA7B8",
"@. c #97B7BD",
"#. c #A5A2A3",
"$. c #A8A9AB",
"%. c #B7AEAB",
"&. c #A2A7B3",
"*. c #A4A9B3",
"=. c #A8ADB9",
"-. c #AEB3BD",
";. c #B4B5B5",
":. c #B9B7B6",
">. c #B4B2BD",
",. c #BBB3BE",
"<. c #C4AA93",
"1. c #CAB198",
"2. c #D2B397",
"3. c #E6BD95",
"4. c #CCB2A0",
"5. c #D8BCA4",
"6. c #C4BBB9",
"7. c #B6C4B2",
"8. c #E6C198",
"9. c #D5C2B6",
"0. c #D7C9BC",
"q. c #E9C7A7",
"w. c #E5CEBD",
"e. c #EBD3BC",
"r. c #F3D0B0",
"t. c #9BA5C2",
"y. c #9DA8C5",
"u. c #8FBFC5",
"i. c #99BAC6",
"p. c #9ABAD4",
"a. c #A6A9C7",
"s. c #ABB4CA",
"d. c #B8B9C6",
"f. c #AAB5D3",
"g. c #AAB6D5",
"h. c #B3BED3",
"j. c #B5BBD8",
"k. c #C6BFC7",
"l. c #96C2D5",
"z. c #B0C5D0",
"x. c #B6C3DD",
"c. c #B9C7DA",
"v. c #B6D8DC",
"b. c #81D1EB",
"n. c #8BD3EE",
"m. c #97D9EE",
"M. c #96D4F0",
"N. c #9BD5F1",
"B. c #9DD9F1",
"V. c #A8C7E3",
"C. c #B5C2E2",
"Z. c #B9C5E4",
"A. c #BEC9E4",
"S. c #BECBEA",
"D. c #A3D4ED",
"F. c #A7D9EA",
"G. c #BCD6E9",
"H. c #A4D6F3",
"J. c #ABD6F4",
"K. c #A3DBF1",
"L. c #A9D8F4",
"P. c #B6D6F5",
"I. c #B3D8F7",
"U. c #BCDAF9",
"Y. c #ACE3F1",
"T. c #B4E4F4",
"R. c #C2C3C5",
"E. c #CBC6CD",
"W. c #CBC9CD",
"Q. c #CACBDA",
"!. c #D5D5D5",
"~. c #D3D2DA",
"^. c #DBDBDC",
"/. c #E7D5C8",
"(. c #F3DFCC",
"). c #E8DED8",
"_. c #C0CEEC",
"`. c #C6D3EE",
"'. c #D5D4E5",
"]. c #D8D7E2",
"[. c #DBD9E4",
"{. c #DEDDEA",
"}. c #C5D4F3",
"|. c #CDD9F6",
" X c #C8D7F8",
".X c #C4DAFA",
"XX c #CBDBFC",
"oX c #D3DEF7",
"OX c #D1DFFC",
"+X c #E0DFEB",
"@X c #C7E8F6",
"#X c #C9E4F8",
"$X c #CDE9F8",
"%X c #D5E3FC",
"&X c #DAE6FD",
"*X c #D3EBF9",
"=X c #DEE8FD",
"-X c #DBF4F9",
";X c #E4E5E5",
":X c #E4E3ED",
">X c #EAEAEC",
",X c #F2E9E5",
"<X c #E6E6F0",
"1X c #ECECF3",
"2X c #E3ECFC",
"3X c #F0EFF4",
"4X c #E8F7FB",
"5X c #EAF2FD",
"6X c #F3F2F6",
"7X c #F4F4F9",
"8X c #F8F9FB",
"9X c #FBFBFC",
/* pixels */
".XM.B.*X%XXXXXXXXXXXXX.XM.m.-X8X5X%XXXXXXXXXXXXXJ.n.H..XXXXXXXXXXXXXXXXXXXXXXXXX",
".XI.K.Y.U.XXXXXXXXXXXX.XM.R Y.-X7X2XOXXXXXXXXXXXU.H.M.J..XXXXXXXXXXXXXXXXXXXXXXX",
"XX.XI.M.B.P.XXXXXXXXXX.XH.R R Y.4X7X2XoXXXXXXXXXXXU.B.M.J..XXXXXXXXXXXXXXXXXXXXX",
"XXXX.XI.M.H..XXXXXXXXXXX.XH.Y T v./.(././.~.|.XX X XU.H.M.J..XXXXXXXXXXXXXXXXXXX",
"XXXXXX.XP.U.XXXXXXXXXX}.j.g.p.u.7.8.3.8.q.w.~.j.s.s.Z.P.H.n.L..XXXXXXXXXXXXXXXXX",
"XXXXXXXXXXXXXXXXXXXX}.a.S h l N C Z V A 3.8.4.W d h { Z.J.R b.L..XXXXXXXXXXXXXXX",
"XXXXXXXXXXXXXXXXXX}.a.S 8 4 7 1 3 c m V A B b * O % s { V.n.U b.J..XXXXXXXXXXXXX",
"XXXXXXXXXXXXXXXXXXx.D 5 @ @ # + + > v m m v : O o @ 4 s t.J.n.U R J..XXXXXXXXXXX",
"XXXXXXXXXXXXXXXXXXj.h @ .   $ x / E i ; ; i E / x $ X 8 | }.I.n.U b.L..XXXXXXXXX",
"XXXXXXXXXXXXXXXXXXf.d * O   0 ;.>X!.j     j !.>X;.0 o h a.}.XXI.n.U b.J..XXXXXXX",
"XXXXXXXXXXXXXXXXXXj.l i b * 0 ;.>X!.j     j !.>X;.r r X.S.XXXXXXP.n.U b.J..XXXXX",
"XXXXXXXXXXXXXXXXXXS.{ H n q * x / E k y y k E / J z } S.XXXXXXXX.XI.n.U R J..XXX",
"XXXX%X=X%XXXXXXX&X%XA.| g 6 # + + : b M M b : + r L V.XXXXXXXXXXXXXXI.n.U b.J..X",
"XXXX#X$X&X=X%XXX#X*X%Xx.{ s 7 1 3 3 2 y y 2 3 3 x P D.XXXXXXXXXXXXXXXXI.n.U b.B.",
"XXXXI.B.@X4X5X%XL.Y.*X`.s.! n N Z m v > > v B Z ] @.V..XXXXXXXXXXXXXXX.XP.n.U I ",
"XXXXU.L.K.@X4X5X#XL.F.c.&.o.,./.q.Z N M M C 3.9.6.&.s.}.XXXXXXXXXXXXXXXX.XI.n.I ",
"XXXXXX.XH.K.@X4X5X#XD.i.~ | d.[.).q.2.<.<.5.w.9.=.=.h.}.XXXXXXXXXXXXXXXXXXXXI.M.",
"XXXXXXXX.XH.K.@X4X5XG.@.( ( $.Q.:X;X6.` ` 6.).R.*.s.S.XXXXXXXXXXXXXXXXXXXXXXXX.X",
"XXXXXXXXXX.XL.B.@X:Xz.-.R.W.W.~.:X3X~.>.>.~.1X;XR.-.h.}.XXXXXXXXXXXXXXXXXXXXXXXX",
"XXXXXXXXXXXXU.L.K.v.$.:.>X6X>X:X<X1X{.~.~.{.1X7X;Xd.-.x.}.XXXXXXXXXXXXXXXXXXXXXX",
"XXXXXXXXXXXXXX.XD.l.O.:.>X1X<X1X1X:X'.'.'.'.:X6X7X;XR.*.h.}.XXXXXXXXXXXXXXXXXXXX",
"XXXXXXXXXXXXXX}.x.+.' 0.>X<X:X6X6X1X:X{.'.'.:X1X6X7X!.%.$.h.XXXXXXXXXXXXXXXXXXXX",
"XXXXXXXXXXXXXX`.=.` 1.e.,X[.].3X9X9X8X1X{.:X1X+X[.,X(.5._ &.}.XXXXXXXXXXXXXXXXXX",
"XXXXXXXXXXXXXX`.+.) 2.r.e.6.d.:X9X9X9X6X+X:X1XW.:.0.r.3._ O.}.XXXXXXXXXXXXXXXXXX",
"XXXXXXXXXXXXXX}.s.#.<.2.<.) #.~.6X7X9X6X+X<X>X:.Q ] 2.1.' =.}.XXXXXXXXXXXXXXXXXX",
"XXXXXXXXXXXXXXXX_.d.#.) Q E ( E.{.:X6X6X+X:X>X;.E Q ) ` -.A.XXXXXXXXXXXXXXXXXXXX",
"XXXXXXXXXXXXXXXXXX_.s.&.O.~ ( W.:X1X7X6X+X<X>X;./ | +.=.Z. XXXXXXXXXXXXXXXXXXXXX",
"XXXXXXXXXXXXXXXXXXXX}._.x.O.#.^.7X9X9X7X:X<X>X:.| h.S.`.}.XXXXXXXXXXXXXXXXXXXXXX",
"XXXXXXXXXXXXXXXXXXXXXXXX_.&.$.^.8X8X8X6X{.<X:X;.O.Q.XXXXXXXXXXXXXXXXXXXXXXXXXXXX",
"XXXXXXXXXXXXXXXXXXXXXXXX_.| E ;.E.E.E.k.d.d.,.( ^ Q.%XXXXXXXXXXXXXXXXXXXXXXXXXXX",
"XXXXXXXXXXXXXXXXXXXXXXXXC.! a f k k g g d g g a z i.#X&XXXXXXXXXXXXXXXXXXXXXXXXX",
"XXXXXXXXXXXXXXXXXXXXXXS.| g t - = & % % % = - , u K l.#X&XOXXXXXXXXX%X%XXXXXXXXX",
"XXXXXXXXXXXXXXXXXXXX}.a.d t < < - & 4 5 & = < < t e K V.*X%XXXXXXXXX=X2X&XXXXXXX",
"XXXXXXXXXXXXXXXXXXXXZ.[ w 7 9 9 = 6 p s 8 6 - - = 7 F l.F.*X&XXXXXXX%X=X2X%XXXXX",
"XXXXXXXXXXXXXXXXXX}.g.! s e e e w s D G h e w w w a ! p.N.Y.$X&XXXXXXX.XT.$X&XXX",
"XXXXXXXXXXXXXXXXXX}.f...[ ! G G G ! }  .[ G G G G [ t.C.J.B.T.#XXXXXXXP.B.T.*X&X",
"XXXXXXXXXXXXXXXXXX|.Z.g.f.y.X...................+.f.C.S. XP.B.B.U..XXX.XI.B.T.*X",
"XXXXXXXXXXXXXXXX=X=XXX}._.g.y.t.t.t.t.t.t.t.t.t.f.S.}.XXXX.XI.M.M.U.XXXX.XI.K.B.",
"XXXXXXXXXXXXXXXX=X2X=XOXXX}.Z.C.C.C.C.C.C.C.C.C.S.}.XXXXXXXXXXP.H.U.XXXXXX.XI.M.",
"XXXXXXXXXXXXXXXXOX2X5X%XXXXXXXXXXXXXXXXXXXXXXXXXXXXXXXXXXXXXXX.X.X.XXXXXXXXX.X.X"
};
