/* XPM */
static char *_981e1a3c500488abebf0e09709e091ebOgzYGFejELPfLHr[] = {
/* columns rows colors chars-per-pixel */
"40 40 224 2 ",
"   c #696A6A",
".  c #6A6B6B",
"X  c #636361",
"o  c #595652",
"O  c #4B4845",
"+  c #423F3D",
"@  c #43403E",
"#  c #514D4A",
"$  c #605E5C",
"%  c #7A777C",
"&  c #857F88",
"*  c #847E87",
"=  c #807B83",
"-  c #6D6D6E",
";  c #686A69",
":  c #676767",
">  c #5B5956",
",  c #636261",
"<  c #686969",
"1  c #585653",
"2  c #4A4744",
"3  c #44413F",
"4  c #4E4B48",
"5  c #5C5B58",
"6  c #656665",
"7  c #6B6C6C",
"8  c #77757A",
"9  c #7A767C",
"0  c #837D86",
"q  c #7B777D",
"w  c #79767C",
"e  c #7A777D",
"r  c #767478",
"t  c #656464",
"y  c #706F71",
"u  c #737175",
"i  c #696B6B",
"p  c #605F5C",
"a  c #53504C",
"s  c #5D5B59",
"d  c #666766",
"f  c #817C84",
"g  c #867F89",
"h  c #857E88",
"j  c #857F89",
"k  c #737275",
"l  c #5F5D5B",
"z  c #585551",
"x  c #5B5955",
"c  c #837D85",
"v  c #747276",
"b  c #757377",
"n  c #817B83",
"m  c #827C84",
"M  c #747275",
"N  c #727173",
"B  c #7F7A81",
"V  c #727073",
"C  c #6A6B6C",
"Z  c #847E88",
"A  c #707072",
"S  c #646362",
"D  c #44413E",
"F  c #5C5B59",
"G  c #646462",
"H  c #7F7B82",
"J  c #7C787F",
"K  c #686968",
"L  c #716F72",
"P  c #7F7A82",
"I  c #676868",
"U  c #61605E",
"Y  c #575450",
"T  c #4D4A47",
"R  c #454240",
"E  c #464341",
"W  c #524F4C",
"Q  c #5B5855",
"!  c #656564",
"~  c #666767",
"^  c #6F6E70",
"/  c #7E7980",
"(  c #7F7981",
")  c #7B767C",
"_  c #6A6A6A",
"`  c #676867",
"'  c #626260",
"]  c #727174",
"[  c #7F7980",
"{  c #5C5956",
"}  c #53504D",
"|  c #494643",
" . c #565350",
".. c #56534F",
"X. c #5C5A57",
"o. c #5F5B59",
"O. c #5E5B59",
"+. c #6B6A6B",
"@. c #615E5C",
"#. c #57544F",
"$. c #54514C",
"%. c #514F4C",
"&. c #605F5D",
"*. c #626261",
"=. c #56544F",
"-. c #585550",
";. c #4F4B48",
":. c #4F4C48",
">. c #595551",
",. c #5D5B58",
"<. c #5F5E5B",
"1. c #5D5C59",
"2. c #585450",
"3. c #696565",
"4. c #6B6768",
"5. c #6A6668",
"6. c #686465",
"7. c #62605E",
"8. c #5E5D5A",
"9. c #504E4B",
"0. c #595651",
"q. c #55524E",
"w. c #504D49",
"e. c #504D4A",
"r. c #534F4C",
"t. c #5D5A57",
"y. c #6C6C6D",
"u. c #6C6C6E",
"i. c #646261",
"p. c #54514E",
"a. c #4D4A48",
"s. c #6A6A6B",
"d. c #6B6C6D",
"f. c #666565",
"g. c #6D6D6F",
"h. c #827C85",
"j. c #807A82",
"k. c #767277",
"l. c #61605F",
"z. c #464340",
"x. c #7D797F",
"c. c #777479",
"v. c #827D85",
"b. c #78767B",
"n. c #6C6B6C",
"m. c #7C787E",
"M. c #837E86",
"N. c #78757A",
"B. c #5A5753",
"V. c #747376",
"C. c #79767B",
"Z. c #6C6D6E",
"A. c #7D7980",
"S. c #61605D",
"D. c #52504C",
"F. c #86808A",
"G. c #737276",
"H. c #6D6E6F",
"J. c #6A6868",
"K. c #666262",
"L. c #524F4D",
"P. c #676665",
"I. c #696768",
"U. c #757074",
"Y. c #6E6B6D",
"T. c #757075",
"R. c #746F74",
"E. c #696767",
"W. c #5A5754",
"Q. c #62615F",
"!. c #575552",
"~. c #514E4A",
"^. c #4F4C49",
"/. c #4A4644",
"(. c #575452",
"). c #45423F",
"_. c #585652",
"`. c #595653",
"'. c #4B4846",
"]. c #484543",
"[. c #646564",
"{. c #5B5957",
"}. c #413E3D",
"|. c #746F73",
" X c #767175",
".X c #7B787E",
"XX c #676565",
"oX c #605E5B",
"OX c #585654",
"+X c #474441",
"@X c #52504D",
"#X c #706F72",
"$X c #7E7A81",
"%X c #767378",
"&X c #87808A",
"*X c #737174",
"=X c #717073",
"-X c #666665",
";X c #696A6B",
":X c #717072",
">X c #5A5854",
",X c #5B5854",
"<X c #817C83",
"1X c #565452",
"2X c #4C4946",
"3X c #54514D",
"4X c #5E5C5A",
"5X c #6D6A6C",
"6X c #696566",
"7X c #6A6566",
"8X c #565451",
"9X c #4E4B47",
"0X c #686868",
"qX c #79757A",
"wX c #726E71",
"eX c #656463",
"rX c #6F6F70",
"tX c #767479",
"yX c #6F6F71",
"uX c #676968",
"iX c #474341",
"pX c #60605E",
"aX c #423F3E",
"sX c white",
/* pixels */
"  . X o o O + @ @ # $             % & * * * * * * * & = - ;         . : > , .   ",
"<   : , , 1 2 3 4 5 6 7 8 % 9 9 9 = * * * * * * * * * 0 q w 9 9 9 9 e r t 6 y 9 ",
"u -   . i p a 4 s d   - f g & & & * * * * * * * h * * * & & & & & & j 0 r 7 u & ",
"* k <     l z x : i < - = & * * * * * * * * * * f c * * * * * * * * * * * v b * ",
"* k <     l z x : i < - = h * * * * * * * * h n y q & * * * * * * * * * * m m * ",
"& M ; . i p a 4 s d . 7 N B & * * * * * & g B V C e g * * * * * * * * * * Z * * ",
"e A : S X 1 2 D 4 F S G < v H & & & j * J q v K G L P h & & & & & & & & & & & & ",
": I U Y z T R E E W o Q ! ~ ^ / / / ( ) _ d ` ! x ' ] = n = = = [ / / / / / / / ",
"x { } |  .z ......z o o Q x X.o.o.o.o.O.{ Q x Q o , 7 - - - - +.@.O.o.o.o.o.o.o.",
"#.Y $.%.&.X X X X ' *.U o #.#.=.=.#.Y Y -.;.:.>.o ,.<.<.<.<.<.1.z #.2.z z 2.Y Y ",
"3.3.3.4.V v k k k k v V 5.6.3.3.3.7.8.8.8.9.4 z 0.>.q.w.e.w.r.o 1.<.t.>.>.X.8.8.",
"* * * * * * * * * * * * * * * * * b y.- u.i.t.x x { p.E @ 3 a.,.s.d.G x x f.g.- ",
"* * * * * * * * * * * * * * * * * h.= = = j.k.: : I l.} z.4 5 s.x.] I : : c.f = ",
"* * * * * * * * * * * * * * * * * * & g & j v.b.y.. S z W 5 n.m.M.u I 7 N.f & & ",
"* * * * * * * * * * * * * * * * * & n m.0 Z & h.-   S B.B.X V.& * C.N b c & * * ",
"* * * * * * * * * * * * * * * * * c c.Z.A.* * A.y.K U  .o ' v * * * * * * * * * ",
"* * * * * * * * * * * * * * * * * b .   y.J J y.  S.D.|  ., k * * * * * * * * * ",
"k k e g g e k k v H F.g j e k G.k H.! &.I J.K.<.l L.R R Y ,.P.k v k k k k k k k ",
"' ' I.U.U.I.' , X Y.T.U.R.E.' ' ' X l W.Q.!.4 ~.#.^./.O ^.^.(.' ' ' ' ' ' ' ' ' ",
"o Y .............. ...Y o o o o o o o o o T ).| _.{ x `.'.E T o o o o o o o o o ",
"o T R E E E E E E E R ]. .o o o o o o o o Y ..1 ! I ` : [.{.Y o o o o o o o o o ",
"' !.:.w.w.e.O + + }.E D.U X ' ' ' ' E.|.R.U.U. X9 .Xv     ! ' ' ' ' ' ' ' ' ' ' ",
"k XX8.oXoXp OX2 D +X@XS.K #Xv k k k e j g g g j & g $Xu u k k k k k k k k k k k ",
"* %X.     i S  .| D.S.  u..X& * * * * * * * * * * * * * * * * * * * * * * * * * ",
"* 0 N.    . X o  .U K y.A.M.* * * * * * * * * * * * * * * * * * * * * * * * * * ",
"* & h.C.d.i S B.B.G i - h.&X$X*X] A.h * * * * * * * * * * C.=X] *Xu *X] ] A.h * ",
"& & h.w y.-XF W z $ 6 y.b.m.k ;X=X$X& & & & & & & & * * * C.V :X  I 7 N ] A.h * ",
"= f c.` : s 4 z.} z 8.: : : ` y.A.f = = = = = = = = h.* * * h f y d.b * * * * * ",
"- g.f.x Q 4 3 @ E W >Xx x ,X&.  y.- - - - - - - - y.b * * * * M.<X= m * * * * * ",
"8.<.1X2X..3Xe.e.w.2X^.>.0.z Q l 8.8.8.8.8.8.8.8.8.4X7.4.V v k v v V.v G.k 5X6X7X",
"z >.W 2XY o { $ oX%.4 z z z -.Y Y -.z z z z z z z z 3XW &.X ' X X X , ' ' 8X9X:.",
"x x x Q o B.&.    &.>X{ O.o.o.o.o.X.x x x x x x x { } |  .B.z ......Y o o T R E ",
": : ` ! x l.<     0Xd _ ) ( / / / ^ d : : : : : : 0XU Y o B.W E E R T o o Y ....",
"q .Xv < G d ; C N.q e J * j & & & $Xe q q q q q q q qXwXeXX F 4 D 2 1 X X ' J.U.",
"& g B V . rX*Xb c j & & * * * * * h & & & & & & & & g M.tXH.-Xs 4 a p i . yXq j ",
"* * h n y q h * * * * * * * * * * * * * * * * * * * * * n =X  : x z l     % & * ",
"* * * * f 0 * * * * * * * * * * * * * * * * * * * * * f y . ;X: x -.l     % & * ",
"& & & & & * * * * h & & & & & & & & & & & & & & & w *X=X. ; . I { ^.L.S.< yX% & ",
"9 9 w q 0 * * * * A.w 9 9 9 9 9 9 9 9 9 9 9 9 9 9 ^ uX<     ` U } iXE @XpXd yX9 ",
"    ; - = & * * * u <                                     . S  .E aXaXE  .S .   "
};
